<?xml version="1.0" encoding="utf-8"?>
<!DOCTYPE svg PUBLIC "-//W3C//DTD SVG 1.1//EN" "http://www.w3.org/Graphics/SVG/1.1/DTD/svg11.dtd">
<svg version="1.1" id="Layer_1" xmlns="http://www.w3.org/2000/svg" xmlns:xlink="http://www.w3.org/1999/xlink" x="0px" y="0px"
	 viewBox="0 0 1054.2135 1686.6874" enable-background="new 0 0 1054.2135 1686.6874" xml:space="preserve">
<path d="M233.7013,1160.848c-0.0045,0.0654-0.0356,0.1633-0.0356,0.2227C233.6657,1162.2289,233.6463,1161.9467,233.7013,1160.848z
	 M1022.9482,372.507c-2.6548-9.6923-6.5388-24.9984-9.9982-27.8448c-3.4625-2.8446-4.1543-4.843-5.9213-10.0782
	c-1.7697-5.2294-3.5397-11.0731-6.4615-17.379c-2.9249-6.3113-8.3918-18.4608-13.1548-20.7712
	c-4.7657-2.3042-10.4644-9.6892-15.6904-18.3036c-5.2264-8.6174-17.8436-18.7686-19.3846-23.842
	c-1.5322-5.0777-13.6863-10.001-27.6843-17.3845c-14.001-7.3865-46.7661-25.9979-59.8436-34.921
	c-13.0776-8.9202-31.5356-22.0364-54.3767-35.304c-22.8441-13.2688-62.7594-15.3432-70.0316-15.8048
	c-7.2664-0.4619-22.9568-16.0368-33.9232-17.7664c-10.9573-1.7341-27.2209,4.1527-36.6846,4.0384
	c-9.4637-0.1159-20.8041,4.9205-24.424,7.1521c-3.6166,2.2301-10.687-6.2314-17.4544-13.9995
	c-6.7732-7.7697-11.8513-8.0756-16.0736-8.383c-8.1558-0.8493-22.2325,12.2298-25.6932,14.9975
	c-3.4639,2.7704-8.0786,0.2329-11.7725-6.6902c-3.6911-6.9234-2.3043-10.846-2.5344-18.4612
	c-0.2347-7.6137,0.2302-5.5396-3.9229-15.2289c-4.1497-9.6908-14.4553-19.1517-29.5385-29.61
	c-15.0729-10.4643-35.0708-15.0774-56.2982-20.9229c-21.2271-5.8467-50.4539-0.6176-70.762,2.1544
	c-20.3084,2.7661-41.8428,21.8449-49.2279,32.3035c-7.382,10.4613-13.2305,26.7651-14.1509,31.6898
	c-0.925,4.9221-7.9999,18.7671-10.1542,33.23c-2.1529,14.4565-6.4601,27.071-2.1529,51.9922
	c4.3102,24.9182,15.6166,38.0745,17.9193,41.5339c2.3119,3.4594,4.2314,7.998,13.6179,19.6905
	c9.3822,11.6922,30.7667,19.3816,30.7667,19.3816s0,0,3.5367-0.3089c6.7659,4.4616,18.7668,4.3844,22.2277,4.5419
	c3.4579,0.1514,3.8471,0.5342,3.8471,4.6116c0,4.077,1.6122,4.3072,2.0786,1.538c0.457-2.7689,2.7643-2.6901,4.1466-1.4596
	c1.3884,1.2294,3.0809,6.3089,6.4601,12.9204c3.3883,6.6145,9.6938,9.2319,12.0042,7.2321
	c2.3012-1.9999,7.8438-5.847,11.0746-4.6161c4.3072,5.5396,10.5757,7.1907,13.5762,4.8849
	c3.0006-2.3088,6.2299-3.1165,10.1497-3.6896c3.924-0.5789,10.0384,2.9948,12.0042,5.4207
	c1.9582,2.4216,4.2656,4.0368,7.4948,3.5753c3.2292-0.4634,9.3477-0.346,12.8072,1.3866c2.5329,2.1915,3.1478,1.0083,5.9166,4.0861
	c2.7677,3.0763,6.2286,2.3265,8.1719,1.6791c1.9853-0.662,3.3035-1.5426,3.8456-3.0064c0.5345-1.4626,1.7904-4.4915,3.8705-2.8789
	c2.0817,1.6167,4.8463,8.0768,6.4631,12.231c1.6125,4.1545-0.3074,5.9984,1.2324,16.7702
	c1.538,10.7657-0.5391,21.3043-0.3148,22.6881c0.2329,1.3869,1.1549,2.7692-2.303,9.2292
	c-3.4667,6.4631-4.6173,16.6154-8.0753,23.9977c-3.4625,7.3866-16.8459,25.613-21.4587,37.6126
	c-4.6146,11.9951-7.8499,31.3827-11.3063,46.3799c-3.464,14.9987-11.0792,40.8406-14.3084,47.5323
	c-3.2338,6.6929-9.4591,24.0746-10.693,28.2289c-1.2324,4.1516-3.0748,7.6909-9.0717,15.3803
	c-6.0012,7.694-13.3461,25.5005-15.8866,29.3071c-1.3984,2.0936-5.3523,4.9457-9.6568,8.4304
	c0.0195-0.2569,0.0551-0.5418,0.0623-0.79c0.2688-6.0963,1.5948-15.1976,3.0942-21.4721c1.5039-6.273,2.7409-12.9009,2.9146-16.4345
	c-0.6145-11.5764-12.4569-18.2963-15.6388-19.4424c-8.837-2.5627-21.5849,1.9226-24.6345,2.8491
	c-3.0468,0.928-8.6797-4.3072-12.3916-6.5594c-6.0963-4.2433-13.2557-4.5729-14.1823-4.6398
	c-4.1749,0.3965-9.149,3.9107-12.5251,7.2233c-3.3807,3.3138-9.6121,8.0856-12.8593,10.4035
	c-3.2487,2.3234-4.4395,0.5981-5.636-0.3965c-2.4484-2.5834-0.4619-17.496-1.7892-22.0051
	c-1.323-4.5048-11.2632-3.4461-13.7842-2.7826c-2.518,0.6622-4.8387-0.5284-6.031-1.3227
	c-0.8611-1.9911-5.1014-3.6465-6.6917-3.9791c-7.6879-1.856-10.7374,4.1096-13.0581,6.0991
	c-2.3207,1.9853-4.5523-4.7748-4.5523-10.2518c-1.4106-12.1942-7.6863-15.2869-12.0161-17.8481
	c-9.7203-3.36-14.6675,2.5612-22.0912,11.0452c-7.4221,8.4836-13.7873,13.5197-22.8872,20.7666
	c-9.1012,7.2457-10.3424,7.0676-17.94,8.3058c-7.5973,1.2397-13.1679,0.6176-17.9369-1.2382
	c-4.7733-1.8561-10.4747-0.3074-20.1491,6.8489c-9.6762,7.1564-18.1598,10.4732-21.3416,10.3382
	c-14.4465-13.1205-42.1515-2.3846-32.7383-7.2902c9.4071-4.9026,4.5045-4.7703-13.7903,3.3141
	c-18.2872,8.0859-29.4212,29.2938-27.0381,25.9812c2.3873-3.3138,9.1459-5.0376,6.3649-1.1938
	c-2.7853,3.8441,0.6623,3.446-3.7149,7.4236c-4.371,3.9763-6.8906,9.5454-13.7842,20.4136
	c-6.8921,10.8682-32.076,18.0248-19.3503,15.9076c12.7239-2.1234,12.1939-4.5091,6.6276,2.916
	c-5.5676,7.4206-10.3409,14.577-18.0288,29.6915c-7.6897,15.113-31.0148-0.5346-27.3042,4.769
	c3.7103,5.3033,17.4945,9.2825,19.8833,6.6291c-4.7749,10.6012-8.2209,32.3421-3.7133,29.1618
	c-13.2527,25.4451-16.7003,58.5872-13.52,47.7148c3.1818-10.8639,0.5315,15.9058-3.7103,36.3209
	c-4.2449,20.4121-3.1803,60.7939,0,74.0554c3.1803,13.2527,12.1957,19.6191,9.5424,28.1c-2.6503,8.4866-1.59,40.1145-1.7682,25.9796
	c-0.1767-14.1375,7.9536-21.0297,6.7197-8.1272c-1.2397,12.8932,9.3627,30.039,10.9573,35.3423
	c6.0073,22.2739,31.4557,48.426,24.5636,38.3506c-6.8936-10.0694-10.2491-26.33-10.4273-30.2142
	c-0.1767-3.893-2.297-9.7248,4.9485,3.3585c7.2454,13.0715,20.326,23.1469,23.8597,24.2069
	c-15.0239-22.9745-20.856-54.2578-20.6778-57.0787c0.1767-2.8331,6.0073,13.9594,9.8973,23.8594
	c3.8854,9.8942,10.2521,16.433,16.0824,41.8814c5.8321,25.4482,16.4376,30.5764,24.0348,45.2457
	c7.6018,14.663,28.2797,18.556,20.6794,14.3097c-7.5988-4.2463-10.0739-11.1324-15.0224-21.7306
	c-4.95-10.6097,12.3721,8.4779,16.2621,18.2c3.8857,9.713,6.3606,1.0601,10.9545,9.5468c4.5967,8.4839,8.6603,10.4287,7.247,6.0015
	c-1.4136-4.4127,5.48-2.4679,7.247,1.7754c1.7667,4.2437,6.3621,7.59,5.3033,4.5879c-1.0615-2.999,1.767-6.3633,4.4157,0.5288
	c2.653,6.8921,10.0751,14.1433,7.2439,9.3685c-2.827-4.7661,2.4764-9.8973,4.42-2.2982c1.9436,7.6018,3.89,7.4205,2.4751,2.6545
	c-1.4136-4.7719,1.4149-3.8839,7.7785,2.123c6.3606,6.0103,10.6009,22.6215,9.186,14.4943
	c-1.4121-8.1337,5.1267,10.776,4.7733,19.2596c-0.3549,8.4839-4.417,15.2009-1.9452,12.9054
	c2.4767-2.3042,4.4203-3.3584,2.2985,5.1251c-2.1188,8.484-15.0209,13.0718-8.307,11.8395
	c6.717-1.2412,13.2554-9.3746,9.0136,0.7097c-4.2388,10.0724-16.963,16.0765-10.7806,14.479
	c6.187-1.5858,14.3173-4.4066,10.0739-0.873c-4.2403,3.5367-0.5285,5.3064,5.8321-1.4194
	c6.3633-6.7139,11.3136-12.546,9.0136-6.1824c-1.5456,4.282-1.9686,10.0663-2.0829,12.3262
	c0.2092-3.7,6.3396-13.8109,7.3865-18.1553c1.06-4.4185,3.7118-4.7778,0.1782,6.1882c-3.5352,10.9514-1.7715,9.7133,0.7051,6.7081
	c2.4706-2.999,4.0652-0.1782,1.59,3.5366c-2.4733,3.7119,1.2385,3.1774,4.0655-0.3502c2.8282-3.5367,7.4221-4.4188,7.4221,1.7697
	c0,6.1794,7.2469-4.5997,9.1933-10.61c1.9406-6.01,1.9406-16.0797,4.2391-19.26c2.2967-3.1803,3.3582,2.6488,4.0621,16.261
	c0.7082,13.609,6.3651-13.7903,7.7815-17.5049c1.4133-3.7061,2.6488-3.7061,6.8906,6.7139c4.2403,10.4315-3.36,18.0306-0.53,20.504
	c2.8297,2.4766,9.8985-27.0397,12.7254-24.2158c2.827,2.8416,7.7758-10.2448,7.6003-1.4105
	c-0.1794,8.84,11.486,24.9226,6.5373,9.1906c-4.947-15.7263,7.7773-24.2103,7.7773-24.2103s0,0,2.1215,2.1265
	c2.1218,2.1141,5.3006,7.4175,6.717,11.6609c1.4133,4.2375,3.8854,8.1245,5.6539,13.7815
	c1.7682,5.6597,3.1803,6.0131,3.5367,19.0875c0.3533,13.0834,4.2403,5.3064,3.5321,14.1464
	c-0.7082,8.8312,3.1818,14.8385,7.0703,24.7357c3.8885,9.9003,3.5352,9.5409,4.947,21.5673
	c1.4136,12.0172,2.1203,21.5581,1.4136,31.1082c-0.7054,9.5348,12.7285,31.4524,10.9603,40.6458
	c-0.2302,1.188-0.3327,2.7795-0.3445,4.6234c-0.9235,15.6342-0.4114,48.3698,13.5793,73.8003
	c15.5539,28.2839,16.966,28.2839,21.2094,69.2802c4.2418,41.0024,2.827,55.1489-2.8285,87.6646
	c-5.6567,32.5215-26.8645,38.1724-21.2079,63.6208c5.6539,25.4512-4.2418,49.4917-4.2418,49.4917s268.644,0,384.5747,0
	c0-42.4244-2.7437-98.2654-26.7726-167.5398c-24.0379-69.2893-34.0032-188.5488-34.0032-188.5488
	c0.8879-9.7161-2.0787-30.1311-4.9917-37.4213c-2.916-7.2899-4.9025-13.5139-6.3606-18.2919
	c-1.4637-4.7687-1.8618-4.2345-1.1938-9.4043c0.6592-5.1757,2.3815-16.3081,2.3815-29.4303c0-13.1189-3.4415-22.5352-4.1038-31.4137
	c-0.6681-8.8848-5.4341-21.7394-5.9687-27.1765c-0.5254-5.4371,2.0313-13.3361,5.2115-20.7686
	c3.1833-7.4178,2.3012-9.7129,5.5736-15.5481c3.2725-5.826,8.3027-15.1085,10.1615-16.7003
	c1.853-1.5885,9.1015-12.1124,10.7822-15.554c2.8209-4.7717,5.6509-13.609,6.2745-19.0936
	c0.5284-6.1763-0.6237-12.2726-2.4736-20.3142c-1.8649-8.05-4.8433-16.1508-9.4843-25.2343
	c-4.6384-9.0775-11.0674-20.2133-15.973-28.1684c-4.8995-7.9491-5.3867-9.5199-11.2215-19.153
	c-5.8322-9.6212-12.3679-15.1085-18.2918-25.0948c-5.9182-9.9894-18.9957-18.0306-18.9957-18.0306s2.248-1.8026,17.888-9.7696
	c14.4316-7.3345,34.0984-20.9348,48.8268-30.915c-0.1068,0.3238-0.1542,0.6385-0.0742,0.9146
	c1.0424,3.6912,9.6954,6.4615,9.6954,6.4615s0.4603,3.1061,1.0363,5.1848c2.3073,3.118,6.5804,2.7765,9.6893,2.429
	c3.1152-0.3503,6.1201-0.4662,7.0347,1.6125c-1.6152,4.264-0.9146,8.4243,1.0454,10.0338c1.9658,1.9598,4.0323,1.5055,7.2661,1.2708
	c3.2277-0.2226,6.925-5.3033,13.2676-7.3789c6.3427-2.0787,15.6907-4.2762,23.1855-8.0741
	c7.5009-3.8158,23.7736-12.3441,33.8074-16.6169c10.0426-4.2762,26.5349-12.46,32.0818-16.1539
	c5.5293-3.6911,8.2997-1.0366,11.4119,2.5387c4.8491,5.8826,15.5807,5.078,19.5005,4.386
	c6.8058-1.5024,9.5765-3.3494,17.1932-7.8454c7.6107-4.4988,24.691-11.8895,32.0731-11.8895c7.3819,0,22.0334-2.4171,29.3055-4.2643
	c12.5756-3.6909,19.6072-13.3862,22.0365-19.9575c4.3829-12.8045-5.0807-23.3105-7.3881-26.6511
	c-2.3043-3.3466-7.0378-7.8511-8.3058-13.8496c-1.2707-5.9954-3.8036-13.2703-6.696-19.8462
	c-2.8804-6.5759-12.6887-32.5291-14.4136-40.8376c-1.7344-8.31-3.804-18.2264-8.196-31.377
	c-4.3829-13.153-17.015-35.6556-20.302-40.3267c-3.2874-4.6739-3.5784-8.2863-2.04-6.751
	c1.538,1.5398,15.0759,3.8456,17.1545,3.3837c2.0726-0.4589,0-11.1534,1.5322-11.4547c1.5353-0.3102,16.7684,5.3793,22.1581,5.0688
	c5.3779-0.3058,5.6896-5.691,7.5395-11.9951c1.8439-6.3086,1.0719-17.8436,2.6102-22.4594
	c1.5353-4.6161,12.7687-19.5376,21.7662-33.1497c9.0005-13.6164,17.8822-35.4211,22.7282-46.2656
	c4.8463-10.8444,11.4207-36.4577,13.728-43.8397c2.3131-7.385,7.967-32.3047,9.8109-47.3034
	C1028.3674,409.769,1025.5997,382.1948,1022.9482,372.507z M618.9471,587.8744c0.2612,3.3123,2.3903,5.6968,0.7988,7.6198
	c-1.5888,1.9227-2.453,4.8387-2.723,7.7545c-0.2615,2.9146-1.6511,4.3741-2.3192,6.8937c-0.6622,2.5153-3.976,4.3726-7.094,6.4944
	c-3.1107,2.12-1.5827,7.5556-2.4469,9.4785c-0.8596,1.9257-3.4491,0.7289-6.2328,1.9257c-2.7795,1.1892-4.9649,3.3092-5.3644,6.028
	c-0.3993,2.7184-1.4581,3.2441-4.1111,4.368c-2.6472,1.133-4.5018,2.7214-7.0244,5.1729c-2.5165,2.4496-0.3965,2.5849-3.2487,3.3153
	c-2.8477,0.7291-9.7413,8.1528-15.6385,11.3315c-5.9005,3.1788-13.7873,9.0805-20.9436,13.4546
	c-7.1579,4.3726-18.4937,10.2728-20.2814,11.2024c-1.7906,0.9235-4.4395,3.5111-8.5493,5.3672
	c-4.1095,1.853-7.4902,3.7118-11.2008,5.7667c-3.7118,2.0504-8.8132,4.5714-13.5212,6.6932
	c-4.7052,2.12-8.6843,2.8492-14.1154,5.7014c-5.4356,2.8461-6.1648-0.465-7.0259-3.3199c-0.8626-2.8464-3.4223-9.5172-6.252-19.1501
	c-2.827-9.6331-8.3918-19.8837-10.8697-23.683c-0.8463-1.3035-1.7551-2.8431-2.6327-4.763c0.8851-1.9999,1.85-3.9684,2.5478-6.2015
	c1.5398-4.9251,9.6896-12.3055,9.6896-12.3055s-0.1514,3.2247-0.0788,4.6131c-1.3793,8.227-0.1499,17.9977,0.2345,21.1501
	c0.8435,6.2299,5.7682,8.9987,7.2309,9.076c2.9218-0.6118,6.2283-3.5367,6.3858-7.0761c0.1514-3.5397-0.3892-13.3062,0.533-19.1472
	c0.925-5.8483,7.1579-10.6945,14.0752-14.7746c6.9247-4.074,18.1523-15.2303,20.541-15.612c2.38-0.3828,7.0718-0.2302,6.9204-2.1513
	c-0.1514-1.9242,1.8469-7.0004,6.2314-13.5361c3.9228-6.0787,6.2271-17.618,7.149-20.5398
	c9.079-4.6161,18.6183-19.2274,23.3829-27.2285c4.7736-7.9984,13.388-23.6876,19.8465-33.6855
	c6.46-10.0013,23.9947-46.7634,27.9933-57.5349c2.9781-8.0056,8.2698-18.0929,12.3021-26.5337
	c1.084,7.1104,1.9719,14.0871,2.453,16.5562c1.1965,6.0979,0.8374,15.7263,1.7697,22.7519
	c-4.371,6.8936-2.518,11.6673-2.518,11.6673s-0.7988,6.7568,4.7748,11.6965c0.2941,3.8976,0.5346,7.5632,0.6623,10.4364
	c0.3977,9.2809,0.2612,32.8748-0.6623,44.0087C618.6857,562.2879,618.6857,584.5576,618.9471,587.8744z M742.4825,591.4481
	c-11.9252-35.7866-30.3121-76.4353-32.076-82.1799c-2.058-6.7212-2.6904-14.476-4.87-20.8056
	c1.6958-9.6805-1.4015-12.5962-1.4015-12.5962s0.8848-8.1306-7.403-11.2306c-4.2728-10.8104-19.2864-57.4488-27.5566-82.5688
	c6.7437,3.8277,12.3234,7.8603,18.2118,11.4918c0.6146,0.3816,1.2887,0.7231,1.9242,1.0913
	c4.6177,16.2116,21.5317,75.2179,27.4617,90.4941c-2.1857,6.8684-3.6227,15.8185,1.6776,22.7121
	c1.4966,4.2582,2.1796,6.252,6.1912,8.9735C727.2077,529.4769,744.098,591.1423,742.4825,591.4481z M824.799,472.5539
	c2.3906-9.5455-4.2404-15.3758-3.7119-16.4391c-0.2642-8.7479-13.3862-9.1429-13.3862-9.1429s0,0-3.9761-5.8348
	c-0.9238-1.3571-2.3788-3.6093-4.1454-6.3354c12.9407,5.9182,24.0884,11.8838,26.5498,14.5429
	c1.3008,2.6947,1.4699,14.632,1.7372,30.0035C825.9747,475.6065,824.6207,472.9118,824.799,472.5539z M892.8084,783.1593
	c-1.3835,4.9236-12.6141,14.3039-16.6169,14.7612c-3.9971,0.4661-12.46,6.1556-14.4584,8.3115
	c-1.9953,2.1501-6.7705,5.3836-7.8454,5.5381c-1.0749,0.1575-3.6908,0.6118-4.4628-4.9232
	c-0.7663-5.535-1.5414-13.6924,2.4614-25.2317c4.0028-11.5331,10.7703-22.6124,11.9996-28.1474
	c1.2324-5.5366,2.9191-12.3085,5.9954-11.8497c0,0,10.7733,17.2364,14.7731,22.4655
	C887.4279,770.0821,894.1923,778.2361,892.8084,783.1593z"/>
</svg>
