<?xml version="1.0" encoding="UTF-8"?>
<!-- CC0 source: https://publicdomainvectors.org/download/6872; normalized to a monochrome 128x128 silhouette with a 12-unit margin. -->
<svg xmlns="http://www.w3.org/2000/svg" viewBox="0 0 128 128" role="img">
  <path fill="#000" d="M46 34h2v1H46zM46 35h2v1H46zM44 36h6v1H44zM74 36h1v1H74zM44 37h6v1H44zM73 37h3v1H73zM40 38h10v1H40zM74 38h3v1H74zM39 39h11v1H39zM74 39h4v1H74zM38 40h12v1H38zM53 40h1v1H53zM74 40h7v1H74zM37 41h13v1H37zM52 41h3v1H52zM74 41h8v1H74zM36 42h9v1H36zM47 42h3v1H47zM52 42h6v1H52zM74 42h9v1H74zM35 43h9v1H35zM48 43h2v1H48zM52 43h7v1H52zM74 43h10v1H74zM34 44h9v1H34zM48 44h2v1H48zM52 44h8v1H52zM75 44h10v1H75zM33 45h9v1H33zM48 45h2v1H48zM52 45h11v1H52zM78 45h10v1H78zM32 46h9v1H32zM48 46h2v1H48zM52 46h12v1H52zM79 46h10v1H79zM29 47h9v1H29zM48 47h2v1H48zM52 47h15v1H52zM82 47h8v1H82zM28 48h9v1H28zM48 48h2v1H48zM52 48h16v1H52zM83 48h8v1H83zM27 49h10v1H27zM48 49h2v1H48zM52 49h17v1H52zM72 49h1v1H72zM84 49h11v1H84zM26 50h11v1H26zM48 50h2v1H48zM52 50h18v1H52zM71 50h3v1H71zM85 50h10v1H85zM25 51h6v1H25zM33 51h4v1H33zM48 51h2v1H48zM52 51h22v1H52zM86 51h11v1H86zM24 52h7v1H24zM33 52h4v1H33zM48 52h2v1H48zM52 52h22v1H52zM86 52h11v1H86zM21 53h8v1H21zM33 53h4v1H33zM48 53h2v1H48zM52 53h22v1H52zM86 53h5v1H86zM92 53h9v1H92zM20 54h9v1H20zM34 54h3v1H34zM48 54h2v1H48zM52 54h22v1H52zM86 54h4v1H86zM93 54h8v1H93zM19 55h8v1H19zM35 55h3v1H35zM48 55h2v1H48zM52 55h22v1H52zM86 55h3v1H86zM96 55h7v1H96zM18 56h9v1H18zM35 56h3v1H35zM48 56h2v1H48zM53 56h21v1H53zM86 56h2v1H86zM97 56h7v1H97zM17 57h6v1H17zM24 57h3v1H24zM35 57h3v1H35zM47 57h3v1H47zM54 57h20v1H54zM86 57h2v1H86zM97 57h3v1H97zM101 57h6v1H101zM16 58h6v1H16zM25 58h2v1H25zM35 58h3v1H35zM46 58h4v1H46zM54 58h20v1H54zM86 58h2v1H86zM97 58h2v1H97zM101 58h7v1H101zM15 59h6v1H15zM34 59h3v1H34zM42 59h8v1H42zM53 59h21v1H53zM86 59h2v1H86zM97 59h2v1H97zM103 59h8v1H103zM14 60h6v1H14zM33 60h5v1H33zM42 60h8v1H42zM52 60h22v1H52zM86 60h2v1H86zM97 60h2v1H97zM103 60h9v1H103zM12 61h5v1H12zM33 61h46v1H33zM86 61h2v1H86zM97 61h2v1H97zM105 61h8v1H105zM12 62h4v1H12zM33 62h11v1H33zM46 62h19v1H46zM67 62h13v1H67zM86 62h2v1H86zM97 62h2v1H97zM105 62h9v1H105zM12 63h4v1H12zM33 63h10v1H33zM47 63h35v1H47zM85 63h3v1H85zM107 63h8v1H107zM14 64h2v1H14zM33 64h7v1H33zM48 64h2v1H48zM52 64h24v1H52zM78 64h10v1H78zM110 64h6v1H110zM32 65h7v1H32zM48 65h2v1H48zM52 65h23v1H52zM79 65h10v1H79zM111 65h5v1H111zM25 66h13v1H25zM48 66h2v1H48zM52 66h22v1H52zM82 66h8v1H82zM114 66h2v1H114zM24 67h13v1H24zM48 67h2v1H48zM52 67h22v1H52zM83 67h8v1H83zM115 67h1v1H115zM21 68h8v1H21zM35 68h3v1H35zM48 68h2v1H48zM52 68h22v1H52zM86 68h13v1H86zM20 69h9v1H20zM35 69h3v1H35zM48 69h3v1H48zM52 69h22v1H52zM86 69h14v1H86zM16 70h9v1H16zM27 70h2v1H27zM35 70h3v1H35zM48 70h13v1H48zM63 70h11v1H63zM86 70h5v1H86zM95 70h10v1H95zM16 71h8v1H16zM27 71h2v1H27zM35 71h3v1H35zM48 71h13v1H48zM63 71h11v1H63zM86 71h5v1H86zM95 71h11v1H95zM12 72h7v1H12zM20 72h3v1H20zM27 72h2v1H27zM35 72h3v1H35zM48 72h3v1H48zM52 72h13v1H52zM67 72h7v1H67zM86 72h5v1H86zM101 72h10v1H101zM12 73h6v1H12zM21 73h1v1H21zM27 73h2v1H27zM35 73h3v1H35zM48 73h2v1H48zM52 73h13v1H52zM67 73h7v1H67zM86 73h5v1H86zM101 73h11v1H101zM12 74h5v1H12zM27 74h2v1H27zM35 74h3v1H35zM48 74h2v1H48zM52 74h22v1H52zM86 74h5v1H86zM109 74h3v1H109zM12 75h4v1H12zM27 75h2v1H27zM35 75h3v1H35zM48 75h2v1H48zM52 75h22v1H52zM86 75h5v1H86zM110 75h2v1H110zM27 76h2v1H27zM35 76h3v1H35zM48 76h2v1H48zM52 76h22v1H52zM86 76h5v1H86zM27 77h2v1H27zM35 77h3v1H35zM48 77h2v1H48zM52 77h22v1H52zM86 77h4v1H86zM27 78h2v1H27zM35 78h3v1H35zM48 78h2v1H48zM52 78h9v1H52zM62 78h12v1H62zM86 78h3v1H86zM27 79h2v1H27zM35 79h3v1H35zM48 79h2v1H48zM52 79h9v1H52zM63 79h11v1H63zM86 79h2v1H86zM35 80h3v1H35zM48 80h2v1H48zM52 80h22v1H52zM86 80h2v1H86zM35 81h3v1H35zM48 81h2v1H48zM52 81h22v1H52zM86 81h2v1H86zM35 82h3v1H35zM48 82h2v1H48zM52 82h22v1H52zM86 82h2v1H86zM35 83h3v1H35zM48 83h2v1H48zM52 83h22v1H52zM86 83h2v1H86zM35 84h3v1H35zM48 84h2v1H48zM52 84h22v1H52zM86 84h2v1H86zM35 85h3v1H35zM48 85h2v1H48zM52 85h22v1H52zM86 85h2v1H86zM35 86h3v1H35zM48 86h2v1H48zM52 86h22v1H52zM86 86h2v1H86zM27 87h2v1H27zM35 87h3v1H35zM48 87h2v1H48zM52 87h22v1H52zM86 87h2v1H86zM26 88h4v1H26zM35 88h3v1H35zM47 88h3v1H47zM53 88h21v1H53zM86 88h2v1H86zM12 89h27v1H12zM46 89h4v1H46zM65 89h9v1H65zM86 89h2v1H86zM12 90h28v1H12zM45 90h5v1H45zM66 90h8v1H66zM86 90h3v1H86zM22 91h26v1H22zM69 91h5v1H69zM84 91h6v1H84zM23 92h25v1H23zM69 92h5v1H69zM84 92h7v1H84z"/>
</svg>
